PathFileType	4	(X/Y/Z)	Patient4_TMGait_0pt7_01_right_12.trc.trc
DataRate	CameraRate	NumFrames	NumMarkers	Units	OrigDataRate	OrigDataStartFrame	OrigNumFrames
88.050314465409	88.050314465409	6	33	mm	88.050314465409	1	       141
Frame#	Time	Sacral			L.Shoulder			Chest			R.Shoulder			Neck			R.ASIS			L.ASIS			R.Thigh.Superior			R.Thigh.Lateral			R.Thigh.Inferior			R.Patella			L.Thigh.Superior			L.Thigh.Lateral			L.Thigh.Inferior			L.Patella			L.Shank.Superior			L.Shank.Lateral			L.Shank.Inferior			R.Shank.Superior			R.Shank.Lateral			R.Shank.Inferior			R.Heel			R.Midfoot.Superior			R.Midfoot.Lateral			R.Toe			L.Heel			L.Midfoot.Lateral			L.Midfoot.Superior			L.Toe			L.Elbow			L.Wrist			R.Elbow			R.Wrist			
		X1	Y1	Z1	X2	Y2	Z2	X3	Y3	Z3	X4	Y4	Z4	X5	Y5	Z5	X6	Y6	Z6	X7	Y7	Z7	X8	Y8	Z8	X9	Y9	Z9	X10	Y10	Z10	X11	Y11	Z11	X12	Y12	Z12	X13	Y13	Z13	X14	Y14	Z14	X15	Y15	Z15	X16	Y16	Z16	X17	Y17	Z17	X18	Y18	Z18	X19	Y19	Z19	X20	Y20	Z20	X21	Y21	Z21	X22	Y22	Z22	X23	Y23	Z23	X24	Y24	Z24	X25	Y25	Z25	X26	Y26	Z26	X27	Y27	Z27	X28	Y28	Z28	X29	Y29	Z29	X30	Y30	Z30	X31	Y31	Z31	X32	Y32	Z32	X33	Y33	Z33	

1	13.240000000000	798.845436728889	1002.969176512153	432.316754408372	990.788049566760	1422.922685393817	244.135619912587	1089.201577488594	1356.771135045873	410.263126474156	1004.637803285728	1443.412388517789	578.437874342105	997.299410053797	1491.145420871907	396.598032724709	1025.498344580381	942.175885635475	553.607285296775	1018.857180734945	968.113963938387	279.674580244701	1121.436828696477	788.422159212421	527.949028898816	1092.210312831988	664.070094582914	601.874821826062	1190.561580775835	636.019263288187	527.465828329514	1219.312658983472	521.806013606772	550.052701913818	1067.634419603109	755.455332280638	308.195704729287	979.484031730046	641.448904679358	243.473511943400	1057.480677006125	562.214328638203	310.904457604032	1054.790927123033	494.466723921601	320.964438245061	1033.919094182043	422.250980177586	310.434501803416	951.144499972197	302.837152769591	260.369862624557	1007.290447664983	196.468070451869	335.183932912187	1144.244315682495	442.846894852815	550.438223704006	1018.300515278903	401.005471370420	599.232700357543	1009.759163320041	292.275649590259	548.734884793007	814.655780663660	237.079078732177	500.738816314325	973.685727844782	165.764063835293	558.483592741221	861.945348418761	174.925517226105	580.548044204702	1025.851920483414	48.742551641440	592.265648073340	885.783284872795	37.567235121323	381.024433299451	957.494768984949	34.393971075176	297.801377660215	1038.196023318907	98.788140475150	321.754103766829	1167.431504740563	52.158623261393	290.555521791709	999.904937148632	1072.371566590518	125.738881834947	1136.743492785765	849.718111745557	144.154615657040	910.999788872447	1117.633883316264	705.818558002758	1105.877651730134	951.660926668975	661.489948095389	
2	13.251357142857	797.602310509991	1003.386618971140	430.894178092666	992.214951964514	1423.351725939446	243.701826411523	1089.100884213369	1356.539961873651	410.418947828681	1003.765471536037	1443.445083613861	578.044915889440	997.792221304710	1491.334744290665	396.140740839859	1023.492435816060	942.808667840328	553.357471226453	1018.243426940097	968.263310673281	279.242711498189	1121.093759225641	791.970219616746	526.916839062236	1094.448930730062	667.362844818099	601.317210396444	1192.513810739902	640.483338975677	526.391564767894	1223.778607908319	527.940835581297	549.417400251562	1064.159381645905	754.603918316576	308.424444688365	974.711831819858	641.529410312875	242.995607596162	1051.022344584143	561.365742699569	310.861283357129	1047.537459752681	493.933146062718	320.887423706893	1026.542371019130	421.981386016001	310.288191849182	943.512195951502	302.813565187027	260.132783267595	999.108297003837	196.337284062004	335.180652923565	1152.353154797464	446.530190553989	550.698401029993	1029.554300472449	398.544253525651	600.376232610192	1026.431897609245	289.538812238717	550.569047007527	834.786183273475	223.856729478001	504.203652110128	997.414841878383	162.307040106749	561.696189531395	885.670112858013	165.064213185365	583.885891524663	1055.638467618239	48.508383989787	595.403571523460	877.332420221199	37.526925613547	381.047325766999	949.020916429859	34.348164994846	297.819118782526	1029.762624009022	98.697391396394	321.816078715241	1159.010094678558	52.093131929150	290.624242420430	1007.785833411295	1074.629562446707	123.161772625217	1156.787600853462	861.709198897813	144.626817797819	906.285020149077	1117.917319671828	705.003768310653	1083.437906451255	935.317419513088	669.398115694067	
3	13.262714285714	796.393278607371	1003.804938446205	429.504129963811	993.646981191717	1423.770749484710	243.295821567931	1089.024479182822	1356.299906741798	410.587321418544	1002.937745578829	1443.451258827092	577.679509821370	998.290816592930	1491.509051506635	395.709802489394	1021.534631370091	943.412182423880	553.118784161001	1017.656955298345	968.396463830425	278.820846648758	1120.706336660236	795.373820059171	525.920878247475	1096.499197403913	670.481957023719	600.758293943146	1194.291431427165	644.717863400739	525.367888045836	1227.955002484794	533.856385794329	548.818256426421	1060.724969444111	753.746639024862	308.643872240946	969.998700252358	641.598023628498	242.531423048594	1044.653898678517	560.523105169381	310.810251704111	1040.388922751259	493.402313502081	320.801207624267	1019.264184590182	421.713011940516	310.142615135979	935.978322681897	302.787698873187	259.897614864741	991.037787615859	196.203700537934	335.176078694773	1160.209711812385	450.055366945983	550.976201464522	1040.662634419089	395.943941750273	601.591878735014	1042.988139027619	286.723044218126	552.455154961095	854.951235255494	210.569724222141	507.766333739773	1021.062536697408	158.787556193117	564.909515292409	909.414069195313	155.182319861535	587.305234505902	1085.342892921251	48.320814626126	598.546258930081	868.994098179246	37.488615439462	381.064305849468	940.657319540591	34.302693654213	297.836841001244	1021.442608015586	98.605065870293	321.876119564917	1150.696731010545	52.019342282393	290.690601546122	1015.482771245038	1076.862390156633	120.656674619112	1176.427281550367	873.719962512550	145.162231367809	901.764195224467	1118.169747528537	704.260374727642	1061.129188830024	919.564960712866	677.222434786699	
4	13.274071428571	795.265185473998	1004.209417418079	428.178867193194	995.092336761790	1424.161253007490	242.954081056770	1089.004201235671	1356.027906350008	410.785277045226	1002.212867839343	1443.393072831474	577.375806841416	998.813687628529	1491.641473773482	395.339819862618	1019.686584419746	943.943934295429	552.903840076224	1017.131160341892	968.490573311665	278.419736762818	1120.207580611502	798.417184846819	525.011849678371	1098.125887876502	673.216778472576	600.230576697250	1195.654303643260	648.428927497201	524.452210706939	1231.500371532252	539.307605370511	548.283450207694	1057.356704024689	752.864286421886	308.839347506208	965.366628447256	641.642325913094	242.089988376729	1038.415330694304	559.682711742859	310.736643598746	1033.392581593311	492.867541128554	320.688939736857	1012.119147027393	421.442308282726	309.993118735636	928.566631252653	302.759002741171	259.663402902896	983.104740062358	196.061465244020	335.166102752555	1167.554855199781	453.261162106659	551.300405960249	1051.552729481669	393.047470818510	602.970549192343	1059.425167110094	283.778694894615	554.453526282938	875.430277037331	197.119087442809	511.541523406878	1044.738376397120	155.233761548903	568.137390292059	933.439595332640	145.288634139472	590.897014835828	1115.087848528799	48.404161210394	601.695016695725	860.784800376694	37.456988463406	381.070648569582	932.418427289093	34.258721836218	297.854547433629	1013.255495434737	98.507023819588	321.932583967886	1142.505435155032	51.924001130500	290.752522073956	1022.872305284510	1079.055122908234	118.296894213748	1195.347064512112	885.925183540061	145.853288529826	897.551749508558	1118.395383941783	703.663373004440	1038.974222683146	904.991507509036	684.899106539388	
5	13.285428571429	794.261328041446	1004.582700726802	426.945197572670	996.555461528299	1424.505144729860	242.708887976440	1089.068261262069	1355.701147599768	411.027056387246	1001.643482068440	1443.237103332669	577.163730671738	999.379756771233	1491.706257823088	395.062096432108	1018.003638341011	944.362916082442	552.723255300654	1016.692429243568	968.524298505328	278.049074211615	1119.538897036018	800.899088174234	524.235137415737	1099.120307757291	675.379185811988	599.769704988374	1196.385806658171	651.351292037076	523.694199096828	1234.124199356285	544.079291978530	547.830966756714	1054.077042668088	751.939487400804	308.994680615925	960.826463621186	641.652628151599	241.677375420228	1032.331881181235	558.840036311966	310.626802898394	1026.577798619529	492.320368570792	320.536724060388	1005.123813880187	421.164805587653	309.835682461484	921.282696559018	302.727664289389	259.429051130426	975.312396709643	195.905227569114	335.146736734451	1174.171015714882	456.016434293988	551.693280080051	1062.185305862106	389.733869626454	604.588929195874	1075.760809339296	280.689871313755	556.609275040458	896.512698911930	183.447207557286	515.623150716029	1068.572664627738	151.723164061483	571.391995960576	958.015697941503	135.429708865242	594.730592394544	1145.004796736807	49.014117437670	604.836938501302	852.695088706539	37.436474985143	381.064137459066	924.294358843351	34.217532094594	297.872260722295	1005.196496344536	98.399002539688	321.984392737367	1134.426726587606	51.795480064099	290.808409498339	1029.872585991789	1081.195081696922	116.144364494142	1213.303941173095	898.492700600329	146.780476276870	893.698215981231	1118.614046565765	703.267109748608	1016.998957994671	892.083994134351	692.370858167073	
6	13.296785714286	793.419710003132	1004.904362946690	425.824310649274	998.033414533159	1424.785240674498	242.585834936460	1089.238253553407	1355.299391438586	411.322395635780	1001.272500485068	1442.957794296941	577.066293937537	1000.005762911336	1491.680702064841	394.902217031378	1016.533903002598	944.633019033843	552.585283206068	1016.358994117271	968.479384904053	277.717311619949	1118.657066682440	802.645841062281	523.628670341636	1099.320735872000	676.819264102047	599.414255248894	1196.313001106798	653.269817202365	523.131861081019	1235.612652211396	547.999983673697	547.467201081625	1050.909077756826	750.959719076482	309.093719331133	956.384225362506	641.623059374491	241.296520981540	1026.420558022702	557.990993435472	310.469953811817	1019.963258563243	491.751930442512	320.335192220170	998.285136784414	420.875729103679	309.667353232766	914.123315893496	302.694843955030	259.193732032760	967.651179177999	195.730828477877	335.114386285536	1179.892670342201	458.228798638924	552.168431672697	1072.537740256025	385.938760469492	606.497712564078	1092.000154229061	277.484060643732	558.941999705319	918.428309954125	169.572328711111	520.062657405111	1092.655162934834	148.383880871229	574.673656084237	983.342282679543	125.706706778668	598.835578849011	1175.160762530087	50.415384081247	607.940308498523	844.700744700742	37.431025630520	381.045409507986	916.262255499341	34.180524816285	297.889961204003	997.247135051119	98.277221814206	322.031036278746	1126.438918210731	51.625047638576	290.857257060355	1036.441335478767	1083.269321126173	114.247398214679	1230.121855349519	911.547813925388	148.003367135542	890.189925420870	1118.860606888961	703.101345077673	995.270742467487	881.197016680608	699.578396856445	
